<svg width="234" height="32" viewBox="0 0 234 32" fill="none" xmlns="http://www.w3.org/2000/svg">
<g clip-path="url(#clip0_47_330)">
<path d="M15.8148 0H17.9753V14.8272L12.4444 10.4568L15.8148 0Z" fill="white"/>
<path d="M32 15.8148L32 17.9753L17.1728 17.9753L21.5432 12.4445L32 15.8148Z" fill="white"/>
<path d="M16.1852 32L14.0247 32L14.0247 17.1728L19.5556 21.5432L16.1852 32Z" fill="white"/>
<path d="M3.10837e-07 16.1852L7.25285e-07 14.0247L14.8272 14.0247L10.4568 19.5555L3.10837e-07 16.1852Z" fill="white"/>
</g>
<path d="M210.514 4.79993H220.114C224.53 4.79993 227.9 5.72793 230.226 7.58393C232.572 9.41859 233.746 12.0959 233.746 15.6159C233.746 19.3919 232.594 22.2719 230.29 24.2559C228.007 26.2186 224.679 27.1999 220.306 27.1999H210.514V4.79993ZM220.754 25.2159C223.228 25.2159 225.095 24.4159 226.354 22.8159C227.612 21.1946 228.242 18.7946 228.242 15.6159C228.242 12.7359 227.602 10.5493 226.322 9.05593C225.063 7.54126 223.207 6.78393 220.754 6.78393H215.954V25.2159H220.754Z" fill="white"/>
<path d="M199.32 4.79993H204.76V27.1999H199.32V4.79993Z" fill="white"/>
<path d="M192.985 22.2399C193.583 23.6906 194.073 24.8106 194.457 25.5999C194.863 26.3893 195.236 26.7733 195.577 26.7519V27.1999H190.265C189.86 26.7733 189.487 26.2293 189.145 25.5679C188.825 24.9066 188.484 24.0746 188.121 23.0719C187.588 21.6639 187.087 20.5653 186.617 19.7759C186.148 18.9866 185.54 18.4426 184.793 18.1439H184.313H179.577V27.1999H174.169V4.79993H184.313C187.663 4.79993 190.244 5.30126 192.057 6.30393C193.892 7.30659 194.809 9.01326 194.809 11.4239C194.809 14.6879 193.049 16.7466 189.529 17.5999C190.255 18.0479 190.884 18.6453 191.417 19.3919C191.972 20.1173 192.495 21.0666 192.985 22.2399ZM179.577 16.1599H184.345C185.967 16.1599 187.215 15.8293 188.089 15.1679C188.985 14.5066 189.433 13.2586 189.433 11.4239C189.433 9.63193 188.985 8.41593 188.089 7.77593C187.215 7.11459 185.967 6.78393 184.345 6.78393H179.577V16.1599Z" fill="white"/>
<path d="M158.654 27.52C155.966 27.52 153.619 27.0613 151.614 26.144C149.63 25.2053 148.094 23.872 147.006 22.144C145.939 20.416 145.406 18.3786 145.406 16.032C145.406 13.6853 145.939 11.648 147.006 9.91996C148.094 8.19196 149.64 6.85863 151.646 5.91996C153.651 4.9813 156.019 4.51196 158.75 4.51196C160.883 4.51196 162.771 4.8213 164.414 5.43996C166.056 6.05863 167.379 6.94396 168.382 8.09596C169.384 9.22663 169.992 10.5813 170.206 12.16H165.95C165.587 10.3253 164.787 8.92796 163.55 7.96796C162.334 6.98663 160.766 6.49596 158.846 6.49596C156.35 6.49596 154.398 7.32796 152.99 8.99196C151.603 10.656 150.91 12.992 150.91 16C150.91 18.9866 151.592 21.3226 152.958 23.008C154.344 24.6933 156.254 25.536 158.686 25.536C159.752 25.536 160.712 25.4293 161.566 25.216C162.419 24.9813 163.336 24.5866 164.318 24.032V17.184H156.638V15.328H169.726V24.064C168.595 25.1306 167.027 25.9733 165.022 26.592C163.038 27.2106 160.915 27.52 158.654 27.52Z" fill="white"/>
<path d="M129.052 27.52C126.386 27.52 124.082 27.0613 122.141 26.144C120.199 25.2266 118.706 23.904 117.66 22.176C116.636 20.4266 116.124 18.336 116.124 15.904C116.124 13.5146 116.636 11.4666 117.66 9.75998C118.706 8.05331 120.199 6.75198 122.141 5.85598C124.082 4.93865 126.386 4.47998 129.052 4.47998C131.698 4.47998 133.991 4.93865 135.933 5.85598C137.874 6.75198 139.357 8.05331 140.381 9.75998C141.426 11.4666 141.949 13.5146 141.949 15.904C141.949 18.336 141.426 20.4266 140.381 22.176C139.357 23.904 137.874 25.2266 135.933 26.144C134.013 27.0613 131.719 27.52 129.052 27.52ZM129.052 25.536C131.463 25.536 133.298 24.7146 134.557 23.072C135.815 21.4293 136.445 19.04 136.445 15.904C136.445 12.832 135.815 10.496 134.557 8.89598C133.298 7.27465 131.463 6.46398 129.052 6.46398C126.642 6.46398 124.797 7.27465 123.517 8.89598C122.258 10.496 121.629 12.832 121.629 15.904C121.629 19.04 122.258 21.4293 123.517 23.072C124.775 24.7146 126.62 25.536 129.052 25.536Z" fill="white"/>
<path d="M111.485 22.2399C112.083 23.6906 112.573 24.8106 112.957 25.5999C113.363 26.3893 113.736 26.7733 114.077 26.7519V27.1999H108.765C108.36 26.7733 107.987 26.2293 107.645 25.5679C107.325 24.9066 106.984 24.0746 106.621 23.0719C106.088 21.6639 105.587 20.5653 105.117 19.7759C104.648 18.9866 104.04 18.4426 103.293 18.1439H102.813H98.0773V27.1999H92.6693V4.79993H102.813C106.163 4.79993 108.744 5.30126 110.557 6.30393C112.392 7.30659 113.309 9.01326 113.309 11.4239C113.309 14.6879 111.549 16.7466 108.029 17.5999C108.755 18.0479 109.384 18.6453 109.917 19.3919C110.472 20.1173 110.995 21.0666 111.485 22.2399ZM98.0773 16.1599H102.845C104.467 16.1599 105.715 15.8293 106.589 15.1679C107.485 14.5066 107.933 13.2586 107.933 11.4239C107.933 9.63193 107.485 8.41593 106.589 7.77593C105.715 7.11459 104.467 6.78393 102.845 6.78393H98.0773V16.1599Z" fill="white"/>
<path d="M68.8255 4.79993H89.5295V6.78393H74.2655V14.2079H87.7695V16.1919H74.2655V25.2159H89.5295V27.1999H68.8255V4.79993Z" fill="white"/>
<path d="M57.92 21.536H46.528L43.776 27.2H40L51.648 4.47998H55.136L66.112 27.2H60.576L57.92 21.536ZM56.992 19.552L52.32 9.53598L47.488 19.552H56.992Z" fill="white"/>
<defs>
<clipPath id="clip0_47_330">
<rect width="32" height="32" fill="white"/>
</clipPath>
</defs>
</svg>
