<svg width="1872" height="257" viewBox="0 0 1872 257" fill="none" xmlns="http://www.w3.org/2000/svg">
<path d="M156.614 173.255L129.622 257H112.319V138.254L156.614 173.255ZM1033.54 36.6016C1054.73 36.6016 1073.1 40.2746 1088.64 47.6211C1104.19 54.7969 1116.06 65.2195 1124.27 78.8877C1132.64 92.5558 1136.82 108.957 1136.82 128.093C1136.82 147.57 1132.64 164.313 1124.27 178.323C1116.06 192.162 1104.19 202.755 1088.64 210.102C1073.27 217.448 1054.9 221.122 1033.54 221.122C1012.19 221.122 993.734 217.448 978.187 210.102C962.639 202.755 950.679 192.162 942.308 178.323C934.107 164.313 930.007 147.57 930.007 128.093C930.007 108.958 934.107 92.5558 942.308 78.8877C950.679 65.2196 962.639 54.7969 978.187 47.6211C993.734 40.2744 1012.19 36.6016 1033.54 36.6016ZM1271.38 36.8574C1288.46 36.8575 1303.59 39.3354 1316.74 44.29C1329.9 49.2447 1340.49 56.3347 1348.52 65.5605C1356.55 74.6157 1361.42 85.4653 1363.13 98.1084H1329.04C1326.14 83.4152 1319.73 72.2245 1309.82 64.5361C1300.08 56.6769 1287.53 52.7471 1272.15 52.7471C1252.16 52.7471 1236.53 59.4099 1225.25 72.7363C1214.14 86.0627 1208.59 104.771 1208.59 128.861C1208.59 152.781 1214.06 171.489 1224.99 184.986C1236.1 198.484 1251.39 205.232 1270.87 205.232C1279.41 205.232 1287.1 204.378 1293.93 202.67C1300.77 200.791 1308.11 197.63 1315.97 193.188V138.344H1254.46V123.479H1359.28V193.444C1350.23 201.987 1337.67 208.735 1321.61 213.689C1305.72 218.644 1288.72 221.122 1270.61 221.122C1249.08 221.122 1230.29 217.448 1214.23 210.102C1198.34 202.584 1186.04 191.906 1177.33 178.067C1168.78 164.228 1164.51 147.912 1164.51 129.118C1164.51 110.324 1168.78 94.0079 1177.33 80.1689C1186.04 66.33 1198.43 55.6513 1214.49 48.1338C1230.55 40.6163 1249.51 36.8574 1271.38 36.8574ZM529.472 218.56H485.135L463.864 173.198H372.629L350.589 218.56H320.348L413.634 36.6016H441.567L529.472 218.56ZM717.015 55.0537H594.771V114.51H702.92V130.399H594.771V202.67H717.015V218.56H551.203V39.1641H717.015V55.0537ZM823.4 39.1641C850.224 39.1641 870.897 43.179 885.42 51.209C900.113 59.239 907.46 72.9076 907.46 92.2139C907.46 118.354 893.364 134.842 865.174 141.676C870.983 145.264 876.024 150.048 880.295 156.027C884.737 161.836 888.923 169.439 892.853 178.836C897.636 190.454 901.565 199.424 904.641 205.745C907.887 212.066 910.877 215.142 913.61 214.972V218.56H871.068C867.822 215.143 864.832 210.786 862.099 205.489C859.536 200.193 856.802 193.529 853.897 185.499C849.626 174.223 845.611 165.424 841.853 159.103C838.094 152.781 833.225 148.424 827.245 146.032H785.472V218.56H742.16V39.1641H823.4ZM1476.11 39.1641C1502.93 39.1641 1523.61 43.1791 1538.13 51.209C1552.82 59.239 1560.17 72.9076 1560.17 92.2139C1560.17 118.354 1546.07 134.842 1517.88 141.676C1523.69 145.264 1528.73 150.048 1533 156.027C1537.45 161.836 1541.63 169.439 1545.56 178.836C1550.35 190.454 1554.27 199.424 1557.35 205.745C1560.6 212.067 1563.59 215.143 1566.32 214.972V218.56H1523.78C1520.53 215.143 1517.54 210.786 1514.81 205.489C1512.24 200.193 1509.51 193.529 1506.61 185.499C1502.34 174.223 1498.32 165.424 1494.56 159.103C1490.8 152.781 1485.93 148.424 1479.95 146.032H1438.18V218.56H1394.87V39.1641H1476.11ZM1639.87 218.56H1596.3V39.1641H1639.87V218.56ZM1762.83 39.1641C1798.19 39.1641 1825.19 46.5968 1843.81 61.4609C1862.6 76.1542 1872 97.5958 1872 125.786C1872 156.027 1862.77 179.092 1844.32 194.981C1826.04 210.7 1799.39 218.56 1764.36 218.56H1685.94V39.1641H1762.83ZM1033.54 52.4912C1014.24 52.4912 999.458 58.9831 989.207 71.9678C979.127 84.7817 974.086 103.49 974.086 128.093C974.086 153.208 979.127 172.343 989.207 185.499C999.287 198.655 1014.07 205.232 1033.54 205.232C1052.85 205.232 1067.54 198.655 1077.62 185.499C1087.7 172.343 1092.74 153.208 1092.74 128.093C1092.74 103.49 1087.7 84.7817 1077.62 71.9678C1067.54 58.983 1052.85 52.4912 1033.54 52.4912ZM1729.51 202.67H1767.95C1787.77 202.67 1802.72 196.263 1812.8 183.449C1822.88 170.464 1827.92 151.243 1827.92 125.786C1827.92 102.721 1822.79 85.2086 1812.54 73.249C1802.46 61.1188 1787.6 55.0537 1767.95 55.0537H1729.51V202.67ZM83.7451 157.336L0 130.344V113.041H118.746L83.7451 157.336ZM380.317 157.309H456.432L419.016 77.0938L380.317 157.309ZM256.278 127.378V144.681H137.532L172.533 100.386L256.278 127.378ZM785.472 130.144H823.657C836.642 130.144 846.637 127.495 853.642 122.198C860.817 116.902 864.405 106.907 864.405 92.2139C864.405 77.8623 860.817 68.1236 853.642 62.998C846.637 57.7017 836.642 55.0537 823.657 55.0537H785.472V130.144ZM1438.18 130.144H1476.37C1489.35 130.144 1499.35 127.495 1506.35 122.198C1513.53 116.902 1517.11 106.907 1517.11 92.2139C1517.11 77.8623 1513.53 68.1236 1506.35 62.998C1499.35 57.7017 1489.35 55.0537 1476.37 55.0537H1438.18V130.144ZM143.959 119.468L99.6641 84.4668L126.656 0.72168H143.959V119.468Z" fill="url(#paint0_linear_1382_271)"/>
<defs>
<linearGradient id="paint0_linear_1382_271" x1="424.91" y1="0.72168" x2="424.91" y2="257" gradientUnits="userSpaceOnUse">
<stop stop-color="white"/>
<stop offset="1" stop-color="white" stop-opacity="0"/>
</linearGradient>
</defs>
</svg>
